<svg viewBox="0 0 394 80" xmlns="http://www.w3.org/2000/svg">
  <path d="M261.919 0.0330722H330.547V12.7H303.323V79.339H289.71V12.7H261.919V0.0330722Z" fill="currentColor"/>
  <path d="M149.052 0.0330722V12.7H94.0421V33.0772H138.281V45.7441H94.0421V66.6721H149.052V79.339H80.43V0.0330722H149.052Z" fill="currentColor"/>
  <path d="M183.32 0.0661486H165.506L229.312 79.3721H247.178L215.271 39.7464L247.127 0.126654H229.312L183.32 0.0661486ZM183.32 0.0661486L165.506 0.0330722H183.32V0.0661486Z" fill="currentColor"/>
  <path d="M201.6 56.7148L192.679 45.6229L165.455 79.3601H183.32L201.6 56.7148Z" fill="currentColor"/>
  <path d="M80.907 79.339L17.479 0H0V79.3059H13.6121V16.9516L63.8067 79.339H80.907Z" fill="currentColor"/>
  <path d="M333.607 78.8546C332.61 78.8546 331.762 78.5093 331.052 77.8186C330.342 77.1279 329.991 76.2917 329.991 75.3013C329.991 74.3377 330.342 73.5106 331.052 72.8199C331.762 72.1292 332.61 71.7839 333.607 71.7839C334.566 71.7839 335.405 72.1292 336.115 72.8199C336.835 73.5106 337.194 74.3377 337.194 75.3013C337.194 76.2917 336.835 77.1279 336.115 77.8186C335.405 78.5093 334.566 78.8546 333.607 78.8546Z" fill="currentColor"/>
  <path d="M356.84 45.4453H362.872V68.6846C362.872 71.8202 361.71 74.3422 359.384 76.2506C357.059 78.159 354.089 79.1132 350.475 79.1132C346.862 79.1132 343.892 78.159 341.567 76.2506C339.241 74.3422 338.079 71.8202 338.079 68.6846V45.4453H344.111V68.6846C344.111 70.1749 344.443 71.3585 345.106 72.2353C345.77 73.1121 346.701 73.5505 347.899 73.5505C349.097 73.5505 350.028 73.1121 350.692 72.2353C351.355 71.3585 351.687 70.1749 351.687 68.6846V45.4453H356.84Z" fill="currentColor"/>
  <path d="M387.691 54.5338C387.544 53.1251 386.805 51.9561 385.474 51.0268C384.143 50.0976 382.499 49.6329 380.541 49.6329C378.582 49.6329 376.938 50.0976 375.607 51.0268C374.276 51.9561 373.537 53.1251 373.39 54.5338H387.691ZM373.39 54.5338C373.39 54.5338 373.39 54.5338 373.39 54.5338H387.691C387.544 53.1251 386.805 51.9561 385.474 51.0268C384.143 50.0976 382.499 49.6329 380.541 49.6329C378.582 49.6329 376.938 50.0976 375.607 51.0268C374.276 51.9561 373.537 53.1251 373.39 54.5338ZM373.39 54.5338V79.339H379.422V65.9954H381.66L387.691 79.339H394L386.929 65.9954C388.26 65.0661 389 63.8971 389.147 62.4884V54.5338H373.39Z" fill="currentColor"/>
</svg>
